<svg xmlns="http://www.w3.org/2000/svg" xmlns:xlink="http://www.w3.org/1999/xlink" width="470" height="468" viewBox="0 0 470 468"><defs><filter id="a" width="111.8%" height="111.9%" x="-5.9%" y="-3.9%" filterUnits="objectBoundingBox"><feOffset dy="5" in="SourceAlpha" result="shadowOffsetOuter1"/><feGaussianBlur in="shadowOffsetOuter1" result="shadowBlurOuter1" stdDeviation="4"/><feColorMatrix in="shadowBlurOuter1" result="shadowMatrixOuter1" values="0 0 0 0 0 0 0 0 0 0 0 0 0 0 0 0 0 0 0.078125 0"/><feOffset dy="4" in="SourceAlpha" result="shadowOffsetOuter2"/><feGaussianBlur in="shadowOffsetOuter2" result="shadowBlurOuter2" stdDeviation="5.5"/><feColorMatrix in="shadowBlurOuter2" result="shadowMatrixOuter2" values="0 0 0 0 0 0 0 0 0 0 0 0 0 0 0 0 0 0 0.210824275 0"/><feMerge><feMergeNode in="shadowMatrixOuter1"/><feMergeNode in="shadowMatrixOuter2"/></feMerge></filter><path id="b" d="M9.635 132.808C24.782 59.782 71.388 19.109 144.085 6.822c53.74-9.081 107.5-9.196 161.15.255 74.852 13.185 119.85 56.23 134.185 130.36 11.075 57.29 11.249 115.191-.174 172.427-15.324 72.52-63.132 117.285-135.561 129.527-53.74 9.08-107.5 9.195-161.15-.255-74.852-13.186-120.05-58.38-134.384-132.509-11.64-57.668-10.52-115.935 1.484-173.82z"/></defs><g fill="none" fill-rule="evenodd" transform="translate(-21 -26)"><g transform="translate(32 33)"><use fill="#000" filter="url(#a)" xlink:href="#b"/><use fill="#5364A2" xlink:href="#b"/></g><path fill="#FFF" d="M114 273.175c0 5.702 4.623 10.325 10.326 10.325h70.406v19H125.77c-16.994 0-30.77-13.776-30.77-30.77V240.5h19v32.675zM340.74 113c6.494 0 11.76 5.266 11.76 11.761v136.1c0 22.996-18.643 41.639-41.639 41.639h-68.36v24h49.403v19H223.5v-62h81.432c15.778 0 28.568-12.79 28.568-28.567V132H114v63.5h99.563l-21.2-21.201 13.434-13.435 38.146 38.146a8.05 8.05 0 0 1-.002 11.388l-38.144 38.129-13.435-13.434 20.593-20.593H95v-89.739c0-6.495 5.265-11.761 11.761-11.761H340.74z" transform="translate(32 33)"/></g></svg>